# xmcd
#
# Track frame offsets:
#	150
#	22152
#	41360
#	59927
#
# Disc length: 1053 seconds
# Revision: 0
# Processed by: cddbd v1.5.2PL0 Copyright (c) Steve Scherf et al.
# Submitted via: dBpowerAMP V12.0
#
DISCID=36041b04
DTITLE=Asharak - Precious Time
DYEAR=1995
DGENRE=Rock
TTITLE0=Temptations
TTITLE1=Precious Time
TTITLE2=(won't You) be my puppet
TTITLE3=Gift of the Heart
EXTD=
EXTT0=
EXTT1=
EXTT2=
EXTT3=
PLAYORDER=
